<svg xmlns="http://www.w3.org/2000/svg" version="1.1" xmlns:xlink="http://www.w3.org/1999/xlink" xmlns:svgjs="http://svgjs.dev/svgjs" width="1500" height="2231" viewBox="0 0 1500 2231"><g transform="matrix(1,0,0,1,1.658132530120838,0.903238866396805)"><svg viewBox="0 0 166 247" data-background-color="#ffffff" preserveAspectRatio="xMidYMid meet" height="2231" width="1500" xmlns="http://www.w3.org/2000/svg" xmlns:xlink="http://www.w3.org/1999/xlink"><g id="tight-bounds" transform="matrix(1,0,0,1,-0.18350000000003774,-0.09999999999999432)"><svg viewBox="0 0 166.3668942408377 247.2" height="247.2" width="166.3668942408377"><g><svg></svg></g><g><svg viewBox="0 0 166.3668942408377 247.2" height="247.2" width="166.3668942408377"><g transform="matrix(1,0,0,1,0,47.215199999999996)"><svg viewBox="0 0 166.3668942408377 152.7696" height="152.7696" width="166.3668942408377"><g><svg viewBox="0 0 166.3668942408377 152.7696" height="152.7696" width="166.3668942408377"><g><svg viewBox="0 0 166.3668942408377 152.7696" height="152.7696" width="166.3668942408377"><g><svg viewBox="0 0 166.3668942408377 152.7696" height="152.7696" width="166.3668942408377"><g id="textblocktransform"><svg viewBox="0 0 166.3668942408377 152.7696" height="152.7696" width="166.3668942408377" id="textblock"><g><svg viewBox="0 0 166.3668942408377 152.7696" height="152.7696" width="166.3668942408377"><g transform="matrix(1,0,0,1,0,0)"><svg width="166.3668942408377" viewBox="-0.35 -32.05 41.6 38.2" height="152.7696" data-palette-color="#ef5b2a"><path d="M9.3 6.15L9.3 6.15Q8.2 6.15 7.1 5.9L7.1 5.9Q6.9 5.9 6.68 5.93 6.45 5.95 6.25 5.95L6.25 5.95Q4.55 5.95 3.33 5 2.1 4.05 1.28 2.58 0.45 1.1 0.05-0.5-0.35-2.1-0.35-3.35L-0.35-3.35Q-0.35-4.2 0.03-4.73 0.4-5.25 0.5-5.9L0.5-5.9Q0.45-6.5 0.33-6.9 0.2-7.3 0.2-7.6L0.2-7.6Q0.2-7.95 0.5-8.25 0.8-8.55 1.6-9.05L1.6-9.05Q1.7-10.25 2.63-11.13 3.55-12 4.9-12.58 6.25-13.15 7.58-13.45 8.9-13.75 9.75-13.75L9.75-13.75Q11.9-13.75 13.68-13 15.45-12.25 16.5-10.7 17.55-9.15 17.55-6.7L17.55-6.7Q17.55-5.95 16.98-5.35 16.4-4.75 16.05-4.05L16.05-4.05Q15.6-3.1 14.95-2.55 14.3-2 13.15-2L13.15-2 13.05-2Q12.55-1.8 12-1.63 11.45-1.45 10.95-1.35L10.95-1.35Q10.75-1.25 10.55-1.3L10.55-1.3 10.35-1.3Q9.25-1.3 8.1-1.8 6.95-2.3 6.8-3.6L6.8-3.6Q6.75-3.75 6.75-3.9 6.75-4.05 6.75-4.15L6.75-4.15Q6.75-4.8 7.1-4.8L7.1-4.8Q7.4-4.8 7.83-4.45 8.25-4.1 8.63-3.75 9-3.4 9.1-3.35L9.1-3.35Q9.35-3.3 9.68-3.23 10-3.15 10.35-3.15L10.35-3.15Q10.6-3.15 11.5-3.4L11.5-3.4Q11.5-4 12.4-4.35L12.4-4.35 12.65-4.45 12.95-4.6 12.95-4.75Q12.95-5.15 12.95-6 12.95-6.85 13.03-7.7 13.1-8.55 13.2-8.85L13.2-8.85 13.5-9.7Q13-10.05 12.43-10.53 11.85-11 11.3-11.2L11.3-11.2Q10.95-11.35 10.8-11.65L10.8-11.65Q10.65-11.65 10.53-11.68 10.4-11.7 10.25-11.7L10.25-11.7Q6.75-11.7 4.88-9.98 3-8.25 3-4.4L3-4.4Q3-1.35 3.93 0.98 4.85 3.3 7.3 4L7.3 4Q7.5 4 7.63 3.98 7.75 3.95 7.85 3.95L7.85 3.95Q8.35 3.95 8.7 4 9.05 4.05 9.55 4.05L9.55 4.05 10.35 4.05Q10.9 3.8 11.63 3.55 12.35 3.3 13.3 3.3L13.3 3.3 13.85 3.3Q14.05 3.2 14.23 3.15 14.4 3.1 14.6 3.05L14.6 3.05Q14.9 2.85 15 2.7L15 2.7 15.2 2.45Q15.4 2.2 15.7 1.88 16 1.55 16.5 1.35L16.5 1.35Q18.05 0.65 19.15-0.3L19.15-0.3Q19.45-0.85 19.7-1.38 19.95-1.9 20.05-2.55L20.05-2.55Q20.1-2.7 20.15-2.95 20.2-3.2 20.3-3.4L20.3-3.4Q20.25-3.5 20.2-3.65 20.15-3.8 20.15-3.95L20.15-3.95Q20.15-4.6 20.5-5 20.85-5.4 21.05-5.6L21.05-5.6 21.4-5.95Q21.45-6.15 21.48-6.28 21.5-6.4 21.5-6.55L21.5-6.55Q21.5-7.05 21.35-7.4 21.2-7.75 21.3-8.35L21.3-8.35Q20.35-8.65 19.55-9.15 18.75-9.65 18.15-10.4L18.15-10.4Q17.9-10.65 17.9-11.1L17.9-11.1Q17.9-11.25 17.93-11.38 17.95-11.5 18-11.65L18-11.65 17.9-11.75Q17.4-12.3 16.82-12.85 16.25-13.4 16.25-14.2L16.25-14.2Q16.25-15.15 17.2-15.65L17.2-15.65Q17.2-15.85 17.18-16 17.15-16.15 17.15-16.35L17.15-16.35Q17.15-17.35 17.57-18.15 18-18.95 19.25-18.95L19.25-18.95Q19.75-18.95 20.25-18.85 20.75-18.75 21.25-18.6L21.25-18.6Q22.1-18.6 23.05-18.05L23.05-18.05Q23.1-18.1 23.3-18.2L23.3-18.2 23.5-18.35Q23.55-18.65 23.85-19.6 24.15-20.55 24.55-21.5 24.95-22.45 25.25-22.6L25.25-22.6 25.7-23.75Q26-24.4 26.75-25.05 27.5-25.7 28.45-25.7L28.45-25.7Q28.95-25.7 29.35-25.68 29.75-25.65 30.2-25.5L30.2-25.5Q30.85-25.3 30.85-24.65L30.85-24.65Q30.85-24.2 30.5-23.88 30.15-23.55 29.6-23.7L29.6-23.7Q29.05-23.9 28.45-23.9L28.45-23.9Q27.8-23.9 27.25-22.78 26.7-21.65 26.25-19.8 25.8-17.95 25.45-15.85L25.45-15.85 25.55-15.7Q25.65-15.6 25.68-15.5 25.7-15.4 25.75-15.3L25.75-15.3Q26.65-13.95 27.43-12.4 28.2-10.85 28.75-9.45L28.75-9.45Q30.85-9.5 32.08-10.1 33.3-10.7 34.3-11.6 35.3-12.5 36.7-13.35L36.7-13.35Q37.1-14.6 37.3-16 37.5-17.4 37.5-18.85L37.5-18.85Q37.5-20 37.33-21.4 37.15-22.8 36.7-24.2 36.25-25.6 35.43-26.68 34.6-27.75 33.3-28.2L33.3-28.2Q30.3-29.2 27.28-29.68 24.25-30.15 21.05-30.15L21.05-30.15 19.15-30.15Q17.75-30.15 16.25-30 14.75-29.85 13.48-29.38 12.2-28.9 11.4-27.9 10.6-26.9 10.6-25.15L10.6-25.15Q10.6-23.6 11.03-22.58 11.45-21.55 12.45-21.1L12.45-21.1Q12.75-21.1 13.03-21.05 13.3-21 13.55-20.9L13.55-20.9 13.7-20.85Q13.8-20.85 13.93-20.83 14.05-20.8 14.2-20.8L14.2-20.8Q14.6-20.8 15.23-20.95 15.85-21.1 16.38-21.43 16.9-21.75 16.9-22.25L16.9-22.25Q16.9-22.55 16.82-23.03 16.75-23.5 16.3-23.5L16.3-23.5Q16.15-23.5 16.05-23.45 15.95-23.4 15.9-23.4L15.9-23.4Q15.65-23 15.15-23L15.15-23Q14.8-23 14.5-23.3 14.2-23.6 14.2-23.95L14.2-23.95Q14.2-24.25 14.4-24.5L14.4-24.5Q14.85-25.1 15.4-25.23 15.95-25.35 16.3-25.35L16.3-25.35Q17.65-25.35 18.2-24.38 18.75-23.4 18.75-22.25L18.75-22.25Q18.75-21.1 18-20.38 17.25-19.65 16.2-19.3 15.15-18.95 14.2-18.95L14.2-18.95Q13.6-18.95 13.08-19.05 12.55-19.15 12.1-19.3L12.1-19.3 11.95-19.3Q10.2-19.3 8.88-20.43 7.55-21.55 7.55-23.55L7.55-23.55Q7.55-24.45 7.88-25.75 8.2-27.05 8.85-28.33 9.5-29.6 10.45-30.45 11.4-31.3 12.65-31.3L12.65-31.3Q12.95-31.3 13.1-31.25L13.1-31.25Q14.95-31.85 17.07-31.95 19.2-32.05 21.05-32.05L21.05-32.05Q21.9-32.05 23.43-31.95 24.95-31.85 26.75-31.6L26.75-31.6Q27.05-31.7 27.3-31.65L27.3-31.65Q29.05-31.4 30.9-31.18 32.75-30.95 34.45-30.35 36.15-29.75 37.4-28.35L37.4-28.35Q37.95-28.05 38.3-27.7 38.65-27.35 38.65-26.65L38.65-26.65Q38.65-26.5 38.6-26.38 38.55-26.25 38.5-26.15L38.5-26.15 38.6-26.1Q39.15-25.8 39.53-25.4 39.9-25 39.9-24.3L39.9-24.3Q39.9-24.25 39.9-24.1 39.9-23.95 39.85-23.85L39.85-23.85Q40.4-23.8 40.83-23.4 41.25-23 41.25-22.05L41.25-22.05Q41.25-21.6 41.08-21.28 40.9-20.95 40.65-20.65L40.65-20.65Q40.75-20.35 40.75-20.05L40.75-20.05Q40.75-18.75 40.7-17.2 40.65-15.65 40.15-14.3 39.65-12.95 38.35-12.2L38.35-12.2Q36.8-7.1 29.6-7.05L29.6-7.05 29.75-6.55Q29.95-5.95 30.18-5.2 30.4-4.45 30.7-3.6L30.7-3.6Q30.75-3.55 30.75-3.5 30.75-3.45 30.8-3.35L30.8-3.35Q31.35-1.8 31.98-0.23 32.6 1.35 33.25 2.35L33.25 2.35 33.55 2.8Q34.1 3 34.63 3.23 35.15 3.45 35.45 3.65L35.45 3.65 35.6 3.75Q36.85 3.7 37.58 2.98 38.3 2.25 38.3 1.2L38.3 1.2Q38.3 0.2 37.93-0.13 37.55-0.45 36.75-0.35L36.75-0.35Q36.25-0.3 35.98-0.6 35.7-0.9 35.7-1.25L35.7-1.25Q35.7-1.55 35.93-1.83 36.15-2.1 36.55-2.15L36.55-2.15Q36.7-2.2 36.85-2.2 37-2.2 37.15-2.2L37.15-2.2Q38.6-2.2 39.38-1.25 40.15-0.3 40.15 1.2L40.15 1.2Q40.15 3.1 38.8 4.38 37.45 5.65 35.45 5.65L35.45 5.65Q34.4 5.65 33.68 5.28 32.95 4.9 32.4 4.35L32.4 4.35Q31.3 3.85 30.38 3.2 29.45 2.55 29.45 1.25L29.45 1.25Q29.45 0.95 29.55 0.7 29.65 0.45 29.8 0.2L29.8 0.2Q28.75-0.65 28.75-1.45L28.75-1.45Q28.75-1.8 29-2.55L29-2.55 28.95-2.55Q28.35-2.55 27.93-2.95 27.5-3.35 27.5-3.85L27.5-3.85Q27.5-4.3 27.8-4.75L27.8-4.75Q26.85-5.15 26.83-5.78 26.8-6.4 26.8-7.1L26.8-7.1Q25.5-7.1 24.2-7.4L24.2-7.4Q24.15-6.6 24.08-5.98 24-5.35 23.9-5.1L23.9-5.1Q23.55-3.15 22.65-1.75 21.75-0.35 20.6 0.9L20.6 0.9Q20.15 1.75 19.53 2.4 18.9 3.05 18.2 3.45L18.2 3.45Q17.15 4.05 15.65 4.6L15.65 4.6Q15 5 14.05 5.15L14.05 5.15Q13.2 5.35 12.35 5.55 11.5 5.75 10.7 5.85L10.7 5.85Q10.4 5.95 10.05 6.05 9.7 6.15 9.3 6.15ZM22-10.3L22-10.3Q22-10.8 21.85-11.43 21.7-12.05 21.7-12.7L21.7-12.7Q21.7-13.2 21.9-13.63 22.1-14.05 22.6-14.35L22.6-14.35Q22.65-14.85 22.58-15.28 22.5-15.7 22.4-16.1L22.4-16.1Q22.05-16.3 21.7-16.48 21.35-16.65 20.95-16.75L20.95-16.75Q20.45-16.75 20.23-16.32 20-15.9 20-14.7L20-14.7Q20-13.15 20.55-12.08 21.1-11 22-10.3ZM26.75-9.45L26.75-9.45Q26.4-10.35 25.98-11.25 25.55-12.15 25-13.05L25-13.05Q24.85-12.15 24.73-11.28 24.6-10.4 24.5-9.55L24.5-9.55Q25.05-9.5 25.63-9.47 26.2-9.45 26.75-9.45Z" opacity="1" transform="matrix(1,0,0,1,0,0)" fill="#ef5b2a" class="wordmark-text-0" data-fill-palette-color="primary" id="text-0"></path></svg></g></svg></g></svg></g></svg></g><g></g></svg></g></svg></g></svg></g><path d="M0 41.215L0 1 166.367 1 166.367 41.215 152.59 41.215 152.59 14.777 13.777 14.777 13.777 41.215 0 41.215M0 205.985L0 246.2 166.367 246.2 166.367 205.985 152.59 205.985 152.59 232.423 13.777 232.423 13.777 205.985 0 205.985" fill="#ef5b2a" stroke="transparent" data-fill-palette-color="tertiary"></path></svg></g><defs></defs></svg><rect width="166.3668942408377" height="247.2" fill="none" stroke="none" visibility="hidden"></rect></g></svg></g></svg>